TITLE ""
FILE "2Q_j_1542-1555.mp3" MP3
  TRACK 01 AUDIO
    TITLE "2Q_j_1542-1555_01"
    INDEX 01 00:00:00
  TRACK 02 AUDIO
    TITLE "2Q_j_1542-1555_02"
    INDEX 01 00:01:35
  TRACK 03 AUDIO
    TITLE "2Q_j_1542-1555_03"
    INDEX 01 00:02:09
  TRACK 04 AUDIO
    TITLE "2Q_j_1542-1555_04"
    INDEX 01 00:03:52
  TRACK 05 AUDIO
    TITLE "2Q_j_1542-1555_05"
    INDEX 01 00:04:22
  TRACK 06 AUDIO
    TITLE "2Q_j_1542-1555_06"
    INDEX 01 00:07:44
  TRACK 07 AUDIO
    TITLE "2Q_j_1542-1555_07"
    INDEX 01 00:08:16
  TRACK 08 AUDIO
    TITLE "2Q_j_1542-1555_08"
    INDEX 01 00:09:58
  TRACK 09 AUDIO
    TITLE "2Q_j_1542-1555_09"
    INDEX 01 00:10:28
  TRACK 10 AUDIO
    TITLE "2Q_j_1542-1555_10"
    INDEX 01 00:13:36
  TRACK 11 AUDIO
    TITLE "2Q_j_1542-1555_11"
    INDEX 01 00:14:08
  TRACK 12 AUDIO
    TITLE "2Q_j_1542-1555_12"
    INDEX 01 00:16:62
  TRACK 13 AUDIO
    TITLE "2Q_j_1542-1555_13"
    INDEX 01 00:17:34
  TRACK 14 AUDIO
    TITLE "2Q_j_1542-1555_14"
    INDEX 01 00:18:53
  TRACK 15 AUDIO
    TITLE "2Q_j_1542-1555_15"
    INDEX 01 00:19:31
  TRACK 16 AUDIO
    TITLE "2Q_j_1542-1555_16"
    INDEX 01 00:21:14
  TRACK 17 AUDIO
    TITLE "2Q_j_1542-1555_17"
    INDEX 01 00:21:58
  TRACK 18 AUDIO
    TITLE "2Q_j_1542-1555_18"
    INDEX 01 00:26:16
  TRACK 19 AUDIO
    TITLE "2Q_j_1542-1555_19"
    INDEX 01 00:26:61
  TRACK 20 AUDIO
    TITLE "2Q_j_1542-1555_20"
    INDEX 01 00:28:07
  TRACK 21 AUDIO
    TITLE "2Q_j_1542-1555_21"
    INDEX 01 00:28:54
  TRACK 22 AUDIO
    TITLE "2Q_j_1542-1555_22"
    INDEX 01 00:30:06
  TRACK 23 AUDIO
    TITLE "2Q_j_1542-1555_23"
    INDEX 01 00:30:51
  TRACK 24 AUDIO
    TITLE "2Q_j_1542-1555_24"
    INDEX 01 00:34:56
  TRACK 25 AUDIO
    TITLE "2Q_j_1542-1555_25"
    INDEX 01 00:35:26
  TRACK 26 AUDIO
    TITLE "2Q_j_1542-1555_26"
    INDEX 01 00:36:49
  TRACK 27 AUDIO
    TITLE "2Q_j_1542-1555_27"
    INDEX 01 00:37:29
  TRACK 28 AUDIO
    TITLE "2Q_j_1542-1555_28"
    INDEX 01 00:39:38
  TRACK 29 AUDIO
    TITLE "2Q_j_1542-1555_29"
    INDEX 01 00:40:10
  TRACK 30 AUDIO
    TITLE "2Q_j_1542-1555_30"
    INDEX 01 00:43:00
  TRACK 31 AUDIO
    TITLE "2Q_j_1542-1555_31"
    INDEX 01 00:43:53
  TRACK 32 AUDIO
    TITLE "2Q_j_1542-1555_32"
    INDEX 01 00:45:11
  TRACK 33 AUDIO
    TITLE "2Q_j_1542-1555_33"
    INDEX 01 00:45:58
  TRACK 34 AUDIO
    TITLE "2Q_j_1542-1555_34"
    INDEX 01 00:49:15
  TRACK 35 AUDIO
    TITLE "2Q_j_1542-1555_35"
    INDEX 01 00:49:62
  TRACK 36 AUDIO
    TITLE "2Q_j_1542-1555_36"
    INDEX 01 00:53:69
  TRACK 37 AUDIO
    TITLE "2Q_j_1542-1555_37"
    INDEX 01 00:54:41
  TRACK 38 AUDIO
    TITLE "2Q_j_1542-1555_38"
    INDEX 01 00:55:58
  TRACK 39 AUDIO
    TITLE "2Q_j_1542-1555_39"
    INDEX 01 00:56:30
  TRACK 40 AUDIO
    TITLE "2Q_j_1542-1555_40"
    INDEX 01 00:57:67
  TRACK 41 AUDIO
    TITLE "2Q_j_1542-1555_41"
    INDEX 01 00:58:37
  TRACK 42 AUDIO
    TITLE "2Q_j_1542-1555_42"
    INDEX 01 01:00:69
  TRACK 43 AUDIO
    TITLE "2Q_j_1542-1555_43"
    INDEX 01 01:01:39
  TRACK 44 AUDIO
    TITLE "2Q_j_1542-1555_44"
    INDEX 01 01:03:50
  TRACK 45 AUDIO
    TITLE "2Q_j_1542-1555_45"
    INDEX 01 01:04:24
  TRACK 46 AUDIO
    TITLE "2Q_j_1542-1555_46"
    INDEX 01 01:06:17
  TRACK 47 AUDIO
    TITLE "2Q_j_1542-1555_47"
    INDEX 01 01:06:64
  TRACK 48 AUDIO
    TITLE "2Q_j_1542-1555_48"
    INDEX 01 01:12:08
  TRACK 49 AUDIO
    TITLE "2Q_j_1542-1555_49"
    INDEX 01 01:12:55
  TRACK 50 AUDIO
    TITLE "2Q_j_1542-1555_50"
    INDEX 01 01:13:64
  TRACK 51 AUDIO
    TITLE "2Q_j_1542-1555_51"
    INDEX 01 01:14:36
  TRACK 52 AUDIO
    TITLE "2Q_j_1542-1555_52"
    INDEX 01 01:16:27
  TRACK 53 AUDIO
    TITLE "2Q_j_1542-1555_53"
    INDEX 01 01:16:72
  TRACK 54 AUDIO
    TITLE "2Q_j_1542-1555_54"
    INDEX 01 01:21:54
  TRACK 55 AUDIO
    TITLE "2Q_j_1542-1555_55"
    INDEX 01 01:22:24
  TRACK 56 AUDIO
    TITLE "2Q_j_1542-1555_56"
    INDEX 01 01:23:35
  TRACK 57 AUDIO
    TITLE "2Q_j_1542-1555_57"
    INDEX 01 01:24:05
  TRACK 58 AUDIO
    TITLE "2Q_j_1542-1555_58"
    INDEX 01 01:26:06
  TRACK 59 AUDIO
    TITLE "2Q_j_1542-1555_59"
    INDEX 01 01:26:49
  TRACK 60 AUDIO
    TITLE "2Q_j_1542-1555_60"
    INDEX 01 01:31:56
  TRACK 61 AUDIO
    TITLE "2Q_j_1542-1555_61"
    INDEX 01 01:32:34
  TRACK 62 AUDIO
    TITLE "2Q_j_1542-1555_62"
    INDEX 01 01:34:17
  TRACK 63 AUDIO
    TITLE "2Q_j_1542-1555_63"
    INDEX 01 01:34:70
  TRACK 64 AUDIO
    TITLE "2Q_j_1542-1555_64"
    INDEX 01 01:37:12
  TRACK 65 AUDIO
    TITLE "2Q_j_1542-1555_65"
    INDEX 01 01:37:57
  TRACK 66 AUDIO
    TITLE "2Q_j_1542-1555_66"
    INDEX 01 01:41:51
  TRACK 67 AUDIO
    TITLE "2Q_j_1542-1555_67"
    INDEX 01 01:42:23
  TRACK 68 AUDIO
    TITLE "2Q_j_1542-1555_68"
    INDEX 01 01:43:38
  TRACK 69 AUDIO
    TITLE "2Q_j_1542-1555_69"
    INDEX 01 01:44:10
  TRACK 70 AUDIO
    TITLE "2Q_j_1542-1555_70"
    INDEX 01 01:46:03
  TRACK 71 AUDIO
    TITLE "2Q_j_1542-1555_71"
    INDEX 01 01:46:48
  TRACK 72 AUDIO
    TITLE "2Q_j_1542-1555_72"
    INDEX 01 01:52:35
  TRACK 73 AUDIO
    TITLE "2Q_j_1542-1555_73"
    INDEX 01 01:53:19
  TRACK 74 AUDIO
    TITLE "2Q_j_1542-1555_74"
    INDEX 01 01:54:65
  TRACK 75 AUDIO
    TITLE "2Q_j_1542-1555_75"
    INDEX 01 01:55:33
  TRACK 76 AUDIO
    TITLE "2Q_j_1542-1555_76"
    INDEX 01 01:58:24
  TRACK 77 AUDIO
    TITLE "2Q_j_1542-1555_77"
    INDEX 01 01:58:69
  TRACK 78 AUDIO
    TITLE "2Q_j_1542-1555_78"
    INDEX 01 02:01:38
  TRACK 79 AUDIO
    TITLE "2Q_j_1542-1555_79"
    INDEX 01 02:02:16
  TRACK 80 AUDIO
    TITLE "2Q_j_1542-1555_80"
    INDEX 01 02:03:35
  TRACK 81 AUDIO
    TITLE "2Q_j_1542-1555_81"
    INDEX 01 02:04:05
  TRACK 82 AUDIO
    TITLE "2Q_j_1542-1555_82"
    INDEX 01 02:08:28
  TRACK 83 AUDIO
    TITLE "2Q_j_1542-1555_83"
    INDEX 01 02:08:73
  TRACK 84 AUDIO
    TITLE "2Q_j_1542-1555_84"
    INDEX 01 02:12:37
